<?xml version="1.0" encoding="UTF-8" standalone="no"?>
<!DOCTYPE svg PUBLIC "-//W3C//DTD SVG 1.1//EN"
 "http://www.w3.org/Graphics/SVG/1.1/DTD/svg11.dtd">
<!-- Generated by graphviz version 2.40.1 (20161225.0304)
 -->
<!-- Title: pandoc Pages: 1 -->
<svg width="352pt" height="116pt"
 viewBox="0.00 0.00 352.00 116.00" xmlns="http://www.w3.org/2000/svg" xmlns:xlink="http://www.w3.org/1999/xlink">
<g id="graph0" class="graph" transform="scale(1 1) rotate(0) translate(4 112)">
<title>pandoc</title>
<polygon fill="#ffffff" stroke="transparent" points="-4,4 -4,-112 348,-112 348,4 -4,4"/>
<!-- Markdown -->
<g id="node1" class="node">
<title>Markdown</title>
<polygon fill="none" stroke="#000000" points="212.0594,-108 131.9406,-108 131.9406,-72 212.0594,-72 212.0594,-108"/>
<text text-anchor="middle" x="172" y="-85.8" font-family="Helvetica,sans-Serif" font-size="14.00" fill="#000000">Markdown</text>
</g>
<!-- PDF -->
<g id="node2" class="node">
<title>PDF</title>
<polygon fill="none" stroke="#000000" points="54,-36 0,-36 0,0 54,0 54,-36"/>
<text text-anchor="middle" x="27" y="-13.8" font-family="Helvetica,sans-Serif" font-size="14.00" fill="#000000">PDF</text>
</g>
<!-- Markdown&#45;&gt;PDF -->
<g id="edge1" class="edge">
<title>Markdown&#45;&gt;PDF</title>
<path fill="none" stroke="#000000" d="M135.4014,-71.9103C116.2214,-62.4207 92.1403,-50.4917 63.2438,-36.1145"/>
<polygon fill="#000000" stroke="#000000" points="64.6334,-32.8966 54.1215,-31.5741 61.5143,-39.1633 64.6334,-32.8966"/>
</g>
<!-- HTML -->
<g id="node3" class="node">
<title>HTML</title>
<polygon fill="none" stroke="#000000" points="126.1025,-36 71.8975,-36 71.8975,0 126.1025,0 126.1025,-36"/>
<text text-anchor="middle" x="99" y="-13.8" font-family="Helvetica,sans-Serif" font-size="14.00" fill="#000000">HTML</text>
</g>
<!-- Markdown&#45;&gt;HTML -->
<g id="edge2" class="edge">
<title>Markdown&#45;&gt;HTML</title>
<path fill="none" stroke="#000000" d="M153.579,-71.8314C144.8471,-63.219 134.2683,-52.7851 124.7577,-43.4048"/>
<polygon fill="#000000" stroke="#000000" points="126.9925,-40.6931 117.4151,-36.1628 122.077,-45.6769 126.9925,-40.6931"/>
</g>
<!-- DOCX -->
<g id="node4" class="node">
<title>DOCX</title>
<polygon fill="none" stroke="#000000" points="200.4421,-36 143.5579,-36 143.5579,0 200.4421,0 200.4421,-36"/>
<text text-anchor="middle" x="172" y="-13.8" font-family="Helvetica,sans-Serif" font-size="14.00" fill="#000000">DOCX</text>
</g>
<!-- Markdown&#45;&gt;DOCX -->
<g id="edge3" class="edge">
<title>Markdown&#45;&gt;DOCX</title>
<path fill="none" stroke="#000000" d="M172,-71.8314C172,-64.131 172,-54.9743 172,-46.4166"/>
<polygon fill="#000000" stroke="#000000" points="175.5001,-46.4132 172,-36.4133 168.5001,-46.4133 175.5001,-46.4132"/>
</g>
<!-- PPTX -->
<g id="node5" class="node">
<title>PPTX</title>
<polygon fill="none" stroke="#000000" points="272,-36 218,-36 218,0 272,0 272,-36"/>
<text text-anchor="middle" x="245" y="-13.8" font-family="Helvetica,sans-Serif" font-size="14.00" fill="#000000">PPTX</text>
</g>
<!-- Markdown&#45;&gt;PPTX -->
<g id="edge4" class="edge">
<title>Markdown&#45;&gt;PPTX</title>
<path fill="none" stroke="#000000" d="M190.421,-71.8314C199.1529,-63.219 209.7317,-52.7851 219.2423,-43.4048"/>
<polygon fill="#000000" stroke="#000000" points="221.923,-45.6769 226.5849,-36.1628 217.0075,-40.6931 221.923,-45.6769"/>
</g>
<!-- etc -->
<g id="node6" class="node">
<title>etc</title>
<polygon fill="none" stroke="#000000" points="344,-36 290,-36 290,0 344,0 344,-36"/>
<text text-anchor="middle" x="317" y="-13.8" font-family="Helvetica,sans-Serif" font-size="14.00" fill="#000000">etc</text>
</g>
<!-- Markdown&#45;&gt;etc -->
<g id="edge5" class="edge">
<title>Markdown&#45;&gt;etc</title>
<path fill="none" stroke="#000000" d="M208.5986,-71.9103C227.7786,-62.4207 251.8597,-50.4917 280.7562,-36.1145"/>
<polygon fill="#000000" stroke="#000000" points="282.4857,-39.1633 289.8785,-31.5741 279.3666,-32.8966 282.4857,-39.1633"/>
</g>
</g>
</svg>

